<svg viewBox="0 -10 900 500" xmlns="http://www.w3.org/2000/svg">
<path d="M896.5,291.6L900.0,291.4L896.8,292.5L896.5,291.6ZM894.2,293.5L896.4,295.4L893.5,295.4L894.2,293.5ZM0.0,290.2L0.2,291.3L0.0,291.4L0.0,290.2Z" class="country" data-name="Fiji" data-iso="FJI"/>
<path d="M534.8,252.4L548.0,261.7L548.0,271.2L550.8,275.8L548.8,277.2L536.4,278.8L534.3,273.5L526.9,270.9L524.1,266.3L523.3,261.2L526.9,258.4L526.0,252.8L534.8,252.4Z" class="country" data-name="Tanzania" data-iso="TZA"/>
<path d="M428.3,180.9L428.3,185.3L420.1,185.2L420.2,191.6L417.8,191.8L417.7,196.7L407.3,197.5L413.1,196.2L421.5,182.8L428.3,180.9Z" class="country" data-name="W. Sahara" data-iso="ESH"/>
<path d="M142.9,127.5L135.9,124.0L131.4,122.9L130.4,119.2L123.7,114.3L125.0,110.2L111.3,100.5L106.4,102.7L97.5,99.2L97.5,75.7L108.7,77.8L127.2,75.6L129.7,73.8L135.6,76.3L138.9,74.6L139.3,76.5L146.3,75.5L161.9,77.7L165.3,79.0L161.7,80.2L166.3,80.8L175.1,80.0L177.8,81.5L180.5,80.3L178.0,79.2L179.6,78.4L184.6,78.0L196.4,80.9L203.9,80.5L203.6,79.0L205.8,78.6L209.7,79.4L209.7,81.8L214.4,77.3L208.8,74.8L209.0,72.0L212.0,70.2L217.8,71.7L221.2,74.5L219.0,75.8L223.6,76.3L223.6,78.8L227.0,76.9L230.0,78.5L229.2,80.3L231.6,82.0L236.1,78.0L236.2,75.3L243.4,75.9L246.8,77.1L245.1,79.7L246.5,82.2L235.6,83.6L231.7,88.1L223.2,91.0L214.4,97.8L213.3,102.6L217.0,103.0L219.3,107.3L244.3,112.1L244.7,116.8L250.2,122.0L253.5,118.6L250.4,113.3L258.6,108.7L253.7,103.0L256.7,100.4L254.7,94.2L265.4,93.9L276.0,97.3L276.8,102.6L280.9,104.5L288.5,99.2L296.5,107.6L295.5,109.2L306.7,113.4L310.6,116.8L310.8,119.6L299.9,124.4L284.0,124.4L272.2,132.9L287.4,126.9L289.6,128.1L287.2,129.8L288.8,134.4L292.1,135.7L296.2,135.3L298.7,132.5L300.5,135.2L286.6,141.1L284.7,141.0L284.6,138.8L288.9,136.8L282.2,137.2L280.5,132.3L276.9,131.4L271.2,137.5L262.8,137.5L243.9,145.8L242.1,145.1L244.7,141.1L243.6,136.6L229.1,129.2L220.9,129.7L213.0,126.5L142.9,127.5ZM240.0,93.9L241.9,92.7L245.3,92.7L242.3,94.6L240.0,93.9ZM250.6,68.0L247.9,65.8L259.4,67.9L254.0,67.8L250.6,68.0ZM250.9,95.9L250.2,94.0L251.8,94.6L250.9,95.9ZM216.0,62.6L214.6,63.5L207.9,62.7L212.9,60.9L216.0,62.6ZM215.4,56.2L209.6,56.1L208.9,55.4L213.9,55.4L215.4,56.2ZM203.4,52.8L211.1,54.0L206.7,55.4L203.4,52.8ZM250.4,62.7L218.9,62.9L215.3,59.2L207.2,58.1L221.0,58.1L227.0,61.0L247.2,60.7L250.4,62.7ZM168.2,54.9L175.4,55.0L166.2,55.7L168.2,54.9ZM171.2,52.9L175.8,53.5L168.6,54.0L171.2,52.9ZM311.0,121.7L308.0,125.5L316.3,126.9L315.5,128.7L317.3,128.3L318.4,131.2L317.3,133.4L314.6,133.0L314.4,130.6L311.5,132.8L309.4,130.9L301.8,131.0L306.6,123.2L311.0,121.7ZM235.3,85.7L246.1,90.1L249.7,90.7L242.2,89.7L236.2,92.4L231.9,91.1L235.3,85.7ZM248.1,69.8L255.4,68.1L278.0,73.7L282.6,77.0L278.0,78.2L295.4,82.8L290.2,87.5L283.2,84.0L280.0,84.3L279.6,85.8L288.3,91.5L287.5,93.3L278.0,90.6L284.6,95.2L277.8,94.2L262.9,88.3L253.6,88.6L255.3,86.7L265.1,86.4L268.4,81.8L266.7,79.8L252.6,74.6L228.3,74.0L226.2,73.1L228.8,72.0L225.3,71.9L224.5,69.4L229.0,66.2L235.4,65.5L233.6,67.1L235.6,68.7L244.2,65.6L248.5,68.2L248.1,69.8ZM210.0,66.4L218.9,64.7L223.7,65.4L211.5,69.8L210.0,66.4ZM142.9,59.7L152.2,56.2L159.5,55.9L157.2,58.7L142.9,59.7ZM117.4,116.5L120.6,114.7L119.9,117.5L122.1,119.5L117.4,116.5ZM186.3,51.7L197.9,53.0L200.8,55.2L187.1,54.0L189.5,53.3L186.3,51.7ZM141.2,128.7L135.9,127.9L129.1,123.1L135.6,124.3L141.2,128.7ZM137.7,64.3L156.1,64.5L161.2,66.3L151.9,68.7L148.9,71.5L142.3,72.7L135.2,70.3L140.2,65.8L137.7,64.3ZM176.0,58.0L185.7,61.3L169.4,64.0L165.3,63.2L170.5,62.1L155.7,61.9L161.5,58.8L177.3,61.3L173.8,58.9L176.0,58.0ZM179.0,67.3L186.5,68.3L188.8,72.5L197.3,76.0L193.2,76.2L193.9,78.1L185.1,77.0L166.7,78.7L156.6,75.1L169.0,74.1L155.2,73.6L153.9,72.7L159.7,71.7L151.5,71.1L162.0,66.7L164.6,67.2L163.3,68.4L175.2,67.6L179.5,70.9L180.8,69.8L179.0,67.3ZM198.9,68.2L196.1,66.6L206.6,65.6L204.9,67.5L208.6,68.6L208.2,70.9L204.1,71.8L193.8,68.7L198.9,68.2ZM183.5,66.0L186.8,65.9L188.8,66.4L186.5,68.1L183.5,66.0ZM193.6,59.2L205.7,59.4L204.6,62.5L193.7,61.1L193.6,59.2ZM208.2,49.6L219.0,46.9L235.5,51.7L227.4,54.3L217.8,54.1L215.1,53.1L217.1,51.5L208.2,49.6ZM221.0,45.3L251.7,42.2L295.4,43.4L280.9,46.2L286.3,46.2L272.0,50.5L257.7,51.7L261.2,52.0L259.4,52.5L261.5,53.7L250.6,57.0L255.3,58.1L248.6,59.6L226.3,58.8L230.6,57.1L229.3,55.2L237.6,56.2L230.1,54.1L237.3,51.6L232.7,49.4L245.4,48.8L231.0,48.7L221.0,45.3ZM262.0,81.4L257.5,82.3L256.9,81.0L260.3,79.3L262.0,81.4ZM204.5,74.6L210.9,77.2L209.3,78.1L200.5,76.5L204.5,74.6ZM288.7,125.3L292.9,125.7L295.5,127.2L291.0,126.5L288.7,125.3ZM290.0,132.4L290.8,133.6L295.0,133.9L292.8,135.1L289.6,134.0L290.0,132.4Z" class="country highlight" data-name="Canada" data-iso="CAN"/>
<path d="M142.9,127.5L213.0,126.5L220.9,129.7L229.1,129.2L243.6,136.6L243.3,145.8L262.8,137.5L271.2,137.5L276.9,131.4L280.5,132.3L282.6,138.0L274.7,140.8L272.9,144.2L275.1,145.9L265.7,147.7L270.1,147.7L265.1,148.1L262.7,152.7L261.2,151.3L262.4,154.0L260.1,157.0L259.1,152.1L259.2,154.8L257.5,154.4L260.7,161.1L246.7,171.4L249.9,182.8L249.0,187.0L245.7,185.3L240.7,175.2L237.2,175.9L234.0,174.0L226.0,174.6L226.5,177.1L213.3,176.3L207.2,180.4L206.2,185.4L202.5,184.1L197.6,176.5L190.1,176.8L183.7,170.6L172.4,171.7L163.2,168.2L157.2,168.7L153.7,164.9L148.4,163.5L139.0,149.2L140.3,136.2L138.3,129.5L142.2,129.9L143.5,132.3L142.9,127.5ZM59.8,200.7L63.0,201.2L60.8,202.7L59.8,200.7ZM58.5,197.5L59.0,198.6L58.2,197.7L58.5,197.5ZM56.9,197.0L58.0,197.3L56.7,197.3L56.9,197.0ZM54.7,196.7L55.9,196.7L55.7,196.8L54.7,196.7ZM51.0,194.4L51.3,195.3L50.5,194.8L51.0,194.4ZM31.4,99.5L35.8,99.3L36.1,100.2L31.4,99.5ZM63.3,106.3L69.6,106.0L63.7,107.5L63.3,106.3ZM97.5,75.7L97.5,99.2L106.4,102.7L111.3,100.5L125.0,110.2L123.7,113.0L114.8,104.7L108.4,104.5L100.3,101.2L82.2,97.8L79.4,98.3L80.0,100.1L70.7,102.1L73.4,96.8L65.0,101.6L66.8,102.8L64.4,104.6L53.9,110.0L37.6,113.6L53.3,107.5L57.4,102.7L45.1,103.3L43.7,100.0L36.6,98.7L34.7,96.2L35.7,94.8L38.6,92.1L48.1,90.6L46.2,89.0L48.1,88.0L37.6,88.9L29.7,85.8L38.8,83.6L45.8,84.7L33.1,79.1L34.5,77.8L58.5,71.6L97.5,75.7ZM20.7,90.5L23.8,90.8L28.3,91.8L26.2,92.6L20.7,90.5Z" class="country highlight" data-name="United States of America" data-iso="USA"/>
<path d="M668.4,127.0L664.4,128.9L662.9,132.5L658.0,131.7L656.1,136.2L649.9,137.7L652.2,142.0L650.6,144.1L635.5,141.8L633.7,143.7L628.0,143.2L621.6,148.3L616.8,147.1L615.2,142.5L612.3,140.7L605.0,141.2L596.3,136.0L589.8,137.5L589.9,146.7L585.2,144.2L581.3,145.5L581.3,143.0L575.8,138.5L582.6,136.9L582.6,132.9L572.8,134.0L566.2,129.0L568.9,123.9L571.4,125.3L576.9,120.8L589.3,123.4L603.3,123.0L604.0,121.8L599.9,120.1L604.2,117.6L602.4,115.8L603.6,115.0L622.7,111.5L627.2,112.1L628.0,114.7L633.8,114.9L633.6,116.3L642.2,113.8L650.1,122.8L658.5,122.3L668.4,127.0Z" class="country" data-name="Kazakhstan" data-iso="KAZ"/>
<path d="M589.9,146.7L589.8,137.5L596.3,136.0L605.0,141.2L612.3,140.7L615.2,142.5L616.8,147.1L620.6,148.3L627.4,144.3L626.1,146.2L632.6,147.8L629.4,149.6L626.5,149.5L626.7,147.6L623.3,148.2L621.3,151.2L619.3,151.0L621.0,154.6L619.6,157.1L596.6,143.1L592.7,146.7L589.9,146.7Z" class="country" data-name="Uzbekistan" data-iso="UZB"/>
<path d="M802.5,256.5L811.5,259.7L819.1,265.2L818.0,268.5L826.7,276.5L819.8,275.3L811.9,269.1L806.6,273.3L802.6,272.8L802.5,256.5ZM831.6,259.1L832.1,261.9L826.7,256.9L827.3,256.3L831.6,259.1ZM828.3,264.6L824.3,265.8L820.8,264.4L825.3,262.5L827.0,263.6L830.3,260.4L828.3,264.6ZM836.9,263.3L840.0,266.4L839.7,267.0L837.9,266.3L836.9,263.3Z" class="country" data-name="Papua New Guinea" data-iso="PNG"/>
<path d="M802.5,256.5L802.6,272.8L800.4,270.7L794.0,271.0L796.7,268.3L794.8,263.5L784.2,258.8L782.5,260.3L780.0,257.1L784.2,255.5L780.6,255.5L776.3,252.3L785.0,252.0L786.1,256.9L788.6,258.4L793.6,254.3L802.5,256.5ZM762.4,272.2L761.1,275.4L758.6,275.6L760.0,273.2L762.4,272.2ZM785.5,267.2L785.3,265.4L786.2,263.6L786.8,265.5L785.5,267.2ZM744.7,239.7L743.3,241.9L747.5,247.7L744.5,248.0L740.4,260.0L725.6,257.3L722.4,249.0L724.2,245.0L726.3,248.1L734.5,247.0L736.6,246.4L739.7,239.2L744.7,239.7ZM769.7,258.5L776.2,257.7L777.1,259.6L769.7,258.5ZM767.2,259.5L765.5,259.0L765.0,257.9L767.5,257.8L767.2,259.5ZM769.8,244.6L771.7,247.2L770.3,252.2L768.5,247.5L769.8,244.6ZM752.2,246.7L763.1,246.5L759.2,249.4L750.5,249.4L750.1,251.3L752.3,253.5L758.4,251.5L753.8,254.8L757.9,263.4L755.6,263.2L756.8,261.2L753.7,261.4L752.4,256.6L750.8,257.3L751.1,263.8L749.5,264.2L746.9,257.0L749.6,249.6L752.2,246.7ZM751.9,274.9L747.4,273.9L749.8,273.4L751.9,274.9ZM749.8,272.0L755.0,271.2L757.3,270.2L756.9,271.6L749.8,272.0ZM744.8,270.2L747.8,271.8L741.9,272.6L744.8,270.2ZM715.1,264.7L731.5,267.4L739.3,270.9L736.4,271.9L713.4,267.1L715.1,264.7ZM708.6,251.8L715.3,257.7L714.5,264.6L711.8,264.7L706.5,260.6L688.2,236.3L693.7,236.9L701.6,244.8L706.2,246.5L709.6,249.7L708.6,251.8Z" class="country" data-name="Indonesia" data-iso="IDN"/>
<path d="M278.4,381.6L280.6,384.6L287.4,386.8L278.4,387.2L278.4,381.6ZM305.9,325.5L303.8,336.1L306.9,338.2L308.0,342.3L301.9,346.8L294.2,347.1L294.6,351.7L293.1,352.6L287.2,352.7L287.6,355.1L291.4,356.4L287.0,358.7L286.1,362.6L281.8,363.9L281.0,365.8L285.9,368.1L277.2,376.8L279.6,380.9L270.2,380.0L266.5,373.3L269.2,370.6L271.9,362.0L269.6,355.6L273.0,346.4L272.2,341.6L275.5,335.5L273.7,328.4L275.9,321.1L279.3,317.2L279.0,311.3L281.7,310.1L284.3,304.6L289.1,307.0L290.0,305.0L292.9,305.1L297.9,309.7L305.6,312.9L303.5,317.8L310.8,318.5L314.7,313.9L315.9,317.3L305.9,325.5Z" class="country" data-name="Argentina" data-iso="ARG"/>
<path d="M278.4,381.6L278.4,387.2L282.6,387.2L279.6,389.0L272.5,387.6L263.3,382.1L272.2,385.2L274.3,382.3L278.4,381.6ZM276.0,294.0L278.9,298.5L280.4,307.2L282.5,307.5L279.0,311.3L279.3,317.2L275.9,321.1L273.7,328.4L275.5,335.5L272.2,341.6L273.0,346.4L269.6,355.6L271.9,362.0L269.2,370.6L266.5,373.3L270.2,380.0L278.6,380.7L272.9,382.2L271.4,384.6L262.6,380.7L261.0,371.7L264.7,367.3L260.9,366.6L264.1,360.3L266.9,361.1L268.2,356.0L266.5,355.3L265.7,358.4L264.2,358.1L267.0,348.1L266.0,342.9L271.4,331.0L274.8,303.5L274.1,295.9L276.0,294.0Z" class="country" data-name="Chile" data-iso="CHL"/>
<path d="M523.3,261.2L526.9,270.9L521.8,271.3L520.9,279.5L524.0,280.4L524.2,283.1L517.9,279.0L505.4,277.7L504.3,268.2L500.2,267.4L497.5,270.0L493.7,270.2L490.8,264.7L480.5,264.5L484.0,261.3L486.5,262.4L490.0,258.8L494.1,251.1L496.4,239.5L498.7,237.4L506.0,239.9L514.1,236.9L518.4,236.9L521.1,239.3L524.3,238.5L527.9,244.5L524.7,248.5L523.3,261.2Z" class="country" data-name="Dem. Rep. Congo" data-iso="COD"/>
<path d="M554.0,254.2L552.5,243.0L555.3,239.4L562.4,237.5L572.3,226.4L572.4,221.5L577.8,219.9L571.5,236.7L554.0,254.2Z" class="country" data-name="Somalia" data-iso="SOM"/>
<path d="M548.0,261.7L534.8,252.4L537.6,245.2L535.0,239.4L538.2,236.2L545.3,241.0L554.6,240.2L552.5,243.0L554.0,254.2L548.0,261.7Z" class="country" data-name="Kenya" data-iso="KEN"/>
<path d="M511.4,229.4L509.5,228.3L508.6,227.6L508.9,224.8L504.8,218.5L507.6,210.8L509.7,211.0L509.6,200.0L512.5,200.0L512.5,195.0L542.2,195.0L543.7,203.5L546.0,205.0L542.1,207.6L540.7,216.1L535.6,223.4L534.9,228.3L531.9,219.4L528.4,225.5L525.0,224.3L522.4,226.5L516.9,226.3L512.7,224.3L509.7,228.5L511.4,229.4Z" class="country" data-name="Sudan" data-iso="SDN"/>
<path d="M509.6,201.0L509.7,211.0L507.6,210.8L504.8,218.5L507.2,222.1L494.9,230.3L488.2,231.4L484.9,226.1L488.7,225.0L486.5,216.7L483.9,214.1L488.1,208.4L489.8,199.0L487.1,192.8L489.7,191.5L509.6,201.0Z" class="country" data-name="Chad" data-iso="TCD"/>
<path d="M270.7,200.7L270.7,204.9L263.9,204.1L269.2,203.3L267.0,200.2L270.7,200.7Z" class="country" data-name="Haiti" data-iso="HTI"/>
<path d="M271.5,206.0L271.0,200.3L279.2,203.5L273.3,203.9L271.5,206.0Z" class="country" data-name="Dominican Rep." data-iso="DOM"/>
<path d="M896.8,72.3L900.0,71.2L900.0,72.9L896.8,72.3ZM572.8,134.0L566.7,138.5L571.5,145.5L569.5,147.1L563.7,143.7L549.9,141.4L541.7,136.9L545.6,134.4L544.2,133.4L547.9,132.4L545.6,131.1L549.3,130.3L550.2,126.0L538.4,123.6L534.4,119.2L529.5,119.7L528.3,117.3L531.7,116.6L526.9,113.0L527.2,111.1L520.4,109.6L518.2,106.3L518.6,103.2L522.8,99.9L520.2,98.7L528.8,92.8L525.1,91.1L526.1,89.5L523.9,87.6L525.5,85.5L522.6,82.6L524.9,80.8L521.1,79.1L521.5,77.3L530.3,75.2L552.6,81.4L552.8,83.0L546.0,85.0L533.0,83.4L537.0,85.2L537.4,89.0L542.5,90.4L541.3,88.1L542.9,87.1L549.0,88.7L551.1,88.1L549.4,86.3L555.2,83.8L559.9,84.8L561.3,83.1L558.6,78.6L565.6,79.4L567.1,80.8L563.9,82.5L565.9,83.3L584.3,77.9L586.2,78.0L583.7,79.5L597.0,77.8L599.9,79.3L602.7,77.6L600.1,76.2L601.4,75.4L621.3,79.8L623.0,78.5L617.3,76.4L616.7,72.4L624.9,67.4L632.0,69.4L629.6,71.5L632.0,74.0L631.4,77.4L634.2,79.0L628.2,84.2L631.1,84.6L637.6,80.6L636.2,79.2L637.3,77.5L634.0,75.9L636.0,73.4L632.8,71.4L637.2,69.7L636.6,67.9L639.2,69.2L638.2,71.7L640.9,72.1L639.8,70.3L643.9,69.3L653.8,70.6L651.3,65.9L667.1,65.2L665.0,63.9L667.9,62.2L701.9,58.9L710.9,55.8L718.1,58.8L727.7,58.2L735.3,60.4L723.5,64.5L758.0,67.6L758.1,65.7L767.4,66.1L771.5,67.4L772.6,69.0L771.2,70.0L778.2,73.0L780.6,70.4L799.7,71.3L797.9,69.0L801.2,67.9L823.8,69.5L832.4,72.9L847.5,72.8L849.3,75.7L852.4,76.4L869.6,76.0L873.9,78.3L877.0,77.5L875.0,75.9L876.1,74.8L900.0,77.6L900.0,87.6L893.5,88.5L898.4,92.5L898.1,94.2L884.2,95.9L875.8,100.3L872.3,98.6L858.8,100.3L855.0,104.4L858.0,106.0L857.6,109.6L854.3,111.8L855.3,112.9L850.9,114.1L850.1,117.0L846.3,117.6L842.0,122.5L838.6,111.5L839.8,108.1L859.2,97.1L861.2,93.6L850.3,98.6L848.3,95.6L841.8,96.4L835.5,100.6L837.6,102.1L828.2,103.0L828.3,101.2L824.5,100.9L805.5,102.4L787.8,113.2L795.4,115.6L799.8,114.5L803.4,117.3L800.2,128.9L787.2,141.5L783.8,143.0L780.7,141.8L776.9,144.4L777.6,137.6L782.7,137.1L787.6,128.8L777.5,130.5L773.5,126.4L769.1,125.6L764.9,118.0L758.9,116.4L750.4,118.1L751.8,120.1L744.7,126.2L735.9,124.4L726.7,127.2L721.2,126.8L717.2,124.3L709.2,124.8L697.2,119.9L693.1,125.7L680.6,123.0L668.4,127.0L658.5,122.3L650.1,122.8L642.2,113.8L633.6,116.3L633.8,114.9L628.0,114.7L627.2,112.1L622.7,111.5L603.6,115.0L602.4,115.8L604.2,117.6L599.9,120.1L604.0,121.8L603.3,123.0L589.3,123.4L576.9,120.8L571.4,125.3L568.9,123.9L566.2,129.0L572.8,134.0ZM678.0,49.1L689.9,46.9L700.5,50.5L699.8,52.8L694.4,53.1L678.0,49.1ZM703.2,51.9L713.4,53.2L698.6,55.2L703.2,51.9ZM797.1,59.7L803.7,59.8L812.7,61.1L810.8,62.9L797.4,63.5L792.4,61.8L797.1,59.7ZM820.6,61.6L826.8,62.3L815.3,62.1L820.6,61.6ZM799.7,66.6L805.2,65.4L809.0,67.0L805.2,67.0L799.7,66.6ZM562.1,48.5L575.1,47.7L578.8,48.3L569.0,50.0L562.1,48.5ZM506.8,114.2L502.2,114.2L499.2,113.9L503.2,112.0L506.8,114.2ZM583.8,65.6L589.8,63.4L589.1,62.3L602.9,59.4L622.1,58.6L596.2,64.2L588.5,69.1L589.1,71.1L593.8,73.2L579.0,71.3L581.1,68.1L586.1,65.9L583.8,65.6ZM807.3,115.7L811.6,127.6L807.9,126.7L806.4,130.3L808.8,134.7L806.9,133.1L805.2,135.1L804.2,116.7L806.5,115.6L805.5,114.4L807.3,115.7ZM12.7,82.0L14.2,84.2L13.6,82.3L20.4,82.7L25.3,85.1L18.7,86.4L17.6,89.4L4.1,86.5L3.3,84.7L0.3,85.3L1.4,86.5L0.0,87.6L0.0,77.6L12.7,82.0ZM6.1,71.8L0.0,72.9L0.0,71.2L6.1,71.8ZM531.1,136.7L534.2,134.5L541.3,136.3L534.7,139.1L531.1,136.7Z" class="country" data-name="Russia" data-iso="RUS"/>
<path d="M252.7,183.9L255.4,182.9L255.4,183.5L252.7,183.9ZM255.5,182.4L257.5,183.5L257.1,185.3L256.6,183.7L255.5,182.4ZM254.0,188.6L255.3,187.1L256.2,190.6L254.0,188.6Z" class="country" data-name="Bahamas" data-iso="BHS"/>
<path d="M297.0,379.6L303.6,377.8L305.6,378.9L301.5,380.5L297.0,379.6Z" class="country" data-name="Falkland Is." data-iso="FLK"/>
<path d="M476.1,50.9L492.5,49.9L503.9,52.6L497.6,53.6L492.8,58.0L489.8,58.1L476.1,50.9ZM527.8,76.1L521.5,77.3L522.5,75.6L519.3,74.6L511.8,78.4L503.1,76.6L499.7,79.0L495.0,78.6L483.9,88.0L483.9,89.9L481.4,89.8L479.8,92.2L480.8,99.7L477.6,102.9L475.9,101.3L471.0,104.2L464.2,103.5L462.5,95.1L498.0,75.5L520.4,72.0L528.2,73.9L525.0,74.5L527.8,76.1ZM518.5,49.9L507.6,51.5L493.4,49.2L507.3,48.4L518.5,49.9ZM511.8,55.4L506.2,56.4L501.8,55.8L503.5,55.2L502.0,54.4L507.2,53.9L511.8,55.4Z" class="country highlight" data-name="Norway" data-iso="-99"/>
<path d="M333.1,43.4L353.4,41.1L382.2,41.2L397.9,43.2L370.2,44.5L394.8,45.7L392.1,47.1L410.6,45.2L419.5,46.8L399.9,49.6L405.7,49.7L400.7,53.1L400.8,55.9L403.8,57.5L395.8,58.4L400.4,59.8L401.0,61.9L398.3,62.1L401.6,64.3L391.1,66.7L394.3,69.5L388.0,69.2L394.7,71.3L395.6,73.3L391.2,73.8L386.1,71.4L387.0,73.1L384.1,74.4L394.1,74.7L350.5,86.4L347.0,91.3L343.0,93.3L344.0,95.2L341.6,99.8L329.3,97.9L320.9,90.9L315.1,82.0L322.8,75.2L313.3,76.0L314.1,72.9L321.5,73.6L310.4,70.9L313.2,68.5L303.5,61.2L278.7,59.8L271.5,57.5L283.1,56.6L266.8,54.9L285.7,51.5L286.7,50.6L279.9,49.7L294.4,46.7L293.4,45.6L324.0,43.9L338.7,45.8L333.1,43.4Z" class="country highlight" data-name="Greenland" data-iso="GRL"/>
<path d="M622.3,371.6L626.3,372.7L626.4,373.1L621.9,374.4L622.3,371.6Z" class="country" data-name="Fr. S. Antarctic Lands" data-iso="ATF"/>
<path d="M762.7,273.5L764.9,271.1L768.3,271.0L762.7,273.5Z" class="country" data-name="Timor-Leste" data-iso="TLS"/>
<path d="M490.9,321.4L492.1,320.2L496.2,322.6L499.7,321.2L499.7,311.9L502.2,317.1L504.0,316.8L508.3,313.2L514.2,313.7L523.6,305.2L528.0,305.6L529.8,310.9L529.6,314.6L527.6,314.3L526.7,316.9L528.2,318.2L532.1,316.9L530.5,321.9L520.5,331.9L514.5,334.9L506.4,334.7L500.2,337.0L495.9,335.3L495.6,329.2L490.9,321.4Z" class="country highlight" data-name="South Africa" data-iso="ZAF"/>
<path d="M522.4,322.4L520.3,326.4L517.5,324.7L520.2,322.1L522.4,322.4Z" class="country" data-name="Lesotho" data-iso="LSO"/>
<path d="M157.2,168.7L163.2,168.2L172.4,171.7L183.7,170.6L190.1,176.8L195.8,175.6L202.5,184.1L207.1,185.3L205.3,193.9L210.2,202.9L213.9,204.6L221.5,202.8L224.3,197.5L232.4,196.1L230.4,204.4L222.5,205.5L221.4,206.9L223.8,209.8L220.6,209.8L219.4,213.7L215.3,210.1L208.6,210.9L191.2,204.3L186.3,200.1L184.9,193.1L169.4,177.6L167.1,172.1L162.7,171.5L176.5,191.6L175.4,193.0L169.5,188.2L169.2,185.0L162.4,180.7L164.6,178.6L157.2,168.7Z" class="country" data-name="Mexico" data-iso="MEX"/>
<path d="M305.9,325.5L315.5,330.1L317.0,331.8L315.5,336.0L309.5,337.1L303.9,334.8L305.9,325.5Z" class="country" data-name="Uruguay" data-iso="URY"/>
<path d="M316.6,334.4L315.5,330.1L305.9,325.5L315.9,317.3L315.9,315.3L313.4,314.3L314.3,310.1L311.5,309.9L310.5,305.9L305.2,305.2L306.3,295.4L304.4,290.7L299.6,290.6L298.7,284.4L286.5,278.9L286.7,274.4L279.3,277.5L273.6,277.5L273.8,273.7L269.5,275.1L266.9,273.7L265.0,268.8L267.8,263.2L275.3,260.7L276.4,252.8L275.0,248.6L277.0,247.5L275.5,245.7L281.2,244.9L282.3,247.2L286.1,248.0L291.6,244.5L289.3,243.8L288.0,239.9L292.3,240.6L298.2,237.0L300.0,237.5L300.1,243.1L302.4,246.7L310.0,245.5L310.1,243.7L317.7,244.7L321.7,239.5L325.1,245.7L324.0,250.2L328.4,250.6L328.5,253.1L330.4,251.5L337.7,253.9L338.5,256.7L350.1,257.2L361.0,262.9L363.2,268.4L362.2,272.5L353.3,282.6L351.8,294.7L347.6,304.8L345.0,307.4L330.9,312.2L327.8,321.7L316.6,334.4Z" class="country highlight" data-name="Brazil" data-iso="BRA"/>
<path d="M276.2,277.4L286.7,274.4L286.5,278.9L298.7,284.4L299.6,290.6L304.4,290.7L306.3,295.4L305.4,299.9L302.2,298.4L295.5,299.1L293.3,305.6L290.0,305.0L289.1,307.0L284.3,304.6L280.4,307.2L278.9,298.5L276.0,294.0L278.3,281.4L276.2,277.4Z" class="country" data-name="Bolivia" data-iso="BOL"/>
<path d="M275.3,260.7L267.8,263.2L265.0,268.8L266.9,273.7L269.5,275.1L273.8,273.7L273.6,277.5L276.2,277.4L278.3,281.4L277.6,291.3L274.1,295.9L260.0,286.6L250.6,268.0L246.9,265.3L246.5,261.8L249.2,258.5L248.9,261.1L253.4,261.4L255.4,257.5L261.1,253.9L262.2,250.1L267.3,255.8L274.9,256.8L273.3,259.4L275.3,260.7Z" class="country" data-name="Peru" data-iso="PER"/>
<path d="M282.8,246.9L281.2,244.9L275.5,245.7L277.0,247.5L275.0,248.6L276.4,252.8L275.3,260.7L273.3,259.4L274.9,256.8L267.3,255.8L262.2,250.1L256.4,249.0L252.5,245.8L257.2,240.4L255.3,231.9L256.3,228.7L260.8,226.4L262.7,222.3L271.5,219.1L266.7,227.1L270.1,232.5L281.6,234.8L280.5,242.9L282.8,246.9Z" class="country" data-name="Colombia" data-iso="COL"/>
<path d="M256.6,228.3L255.3,231.9L252.2,227.5L247.8,231.9L242.9,229.8L242.7,226.3L246.4,228.0L252.4,226.1L256.6,228.3Z" class="country" data-name="Panama" data-iso="PAN"/>
<path d="M243.6,226.1L242.6,229.4L235.8,225.2L235.1,222.8L240.9,222.7L243.6,226.1Z" class="country" data-name="Costa Rica" data-iso="CRI"/>
<path d="M240.9,222.7L235.7,222.3L230.8,217.7L237.7,213.0L242.1,212.5L240.9,222.7Z" class="country" data-name="Nicaragua" data-iso="NIC"/>
<path d="M242.1,212.5L237.7,213.0L231.7,217.5L226.6,213.9L230.2,210.3L237.5,210.0L242.1,212.5Z" class="country" data-name="Honduras" data-iso="HND"/>
<path d="M226.6,213.9L230.7,215.5L230.2,217.1L224.8,215.7L226.6,213.9Z" class="country" data-name="El Salvador" data-iso="SLV"/>
<path d="M219.4,213.7L220.6,209.8L223.8,209.8L221.4,206.9L222.5,205.5L227.1,205.5L226.9,210.3L229.4,210.7L226.6,213.9L224.8,215.7L219.4,213.7Z" class="country" data-name="Guatemala" data-iso="GTM"/>
<path d="M227.1,205.5L229.7,204.1L227.7,210.3L226.9,210.3L227.1,205.5Z" class="country" data-name="Belize" data-iso="BLZ"/>
<path d="M298.2,237.0L292.3,240.6L288.0,239.9L289.3,243.8L291.6,244.5L284.2,248.2L280.5,242.9L281.6,234.8L270.1,232.5L266.7,227.1L267.7,223.9L270.1,221.0L271.7,220.6L269.8,225.3L271.8,227.2L271.5,222.6L275.1,219.6L279.5,223.6L287.8,224.8L295.3,223.2L293.2,223.9L300.6,229.1L296.5,235.1L298.2,237.0Z" class="country" data-name="Venezuela" data-iso="VEN"/>
<path d="M308.7,245.3L303.6,246.8L300.9,245.5L300.0,237.5L296.5,235.1L300.6,229.1L307.1,235.1L304.9,239.8L308.7,245.3Z" class="country" data-name="Guyana" data-iso="GUY"/>
<path d="M313.7,244.2L308.7,245.3L306.0,241.7L304.9,239.8L307.1,235.1L315.1,235.6L313.7,244.2Z" class="country" data-name="Suriname" data-iso="SUR"/>
<path d="M320.9,239.6L317.7,244.7L313.7,244.2L315.1,235.6L320.9,239.6ZM456.3,122.1L470.2,127.5L465.1,133.2L468.6,140.8L454.6,144.1L445.2,141.4L447.0,135.0L438.8,130.1L438.5,128.3L446.0,128.4L445.2,125.6L447.5,126.6L456.3,122.1ZM471.9,146.0L473.5,142.5L473.1,146.5L471.9,146.0Z" class="country highlight" data-name="France" data-iso="-99"/>
<path d="M261.6,250.4L261.1,253.9L255.4,257.5L253.4,261.4L248.9,261.1L250.6,256.6L247.6,255.6L247.7,252.6L249.8,248.1L252.9,246.5L261.6,250.4Z" class="country" data-name="Ecuador" data-iso="ECU"/>
<path d="M282.2,203.7L286.0,204.4L282.0,205.1L282.2,203.7Z" class="country" data-name="Puerto Rico" data-iso="PRI"/>
<path d="M254.2,204.4L257.8,204.0L259.5,205.3L254.2,204.4Z" class="country" data-name="Jamaica" data-iso="JAM"/>
<path d="M244.3,192.0L254.1,193.7L264.6,199.3L255.6,200.4L257.3,199.0L253.2,196.0L245.5,193.4L237.6,195.3L244.3,192.0Z" class="country" data-name="Cuba" data-iso="CUB"/>
<path d="M528.0,305.6L520.1,303.7L513.2,294.3L517.6,294.8L525.7,288.8L532.1,291.8L531.6,300.8L528.0,305.6Z" class="country" data-name="Zimbabwe" data-iso="ZWE"/>
<path d="M523.6,305.2L514.2,313.7L508.3,313.2L504.0,316.8L502.2,317.1L499.7,311.9L499.7,304.6L502.2,304.5L502.3,295.6L513.2,294.3L520.1,303.7L523.6,305.2Z" class="country" data-name="Botswana" data-iso="BWA"/>
<path d="M499.7,304.6L499.7,321.2L496.2,322.6L492.1,320.2L490.9,321.4L488.0,317.7L485.6,305.3L479.3,293.3L512.7,293.9L502.3,295.6L502.2,304.5L499.7,304.6Z" class="country" data-name="Namibia" data-iso="NAM"/>
<path d="M408.2,216.0L405.9,213.2L409.7,208.9L413.6,208.5L419.6,213.5L421.2,218.9L408.3,219.0L407.9,217.1L415.4,216.2L408.2,216.0Z" class="country" data-name="Senegal" data-iso="SEN"/>
<path d="M421.2,218.9L419.6,213.5L420.8,211.5L436.2,211.2L433.9,187.6L437.7,187.6L457.9,200.8L457.9,202.4L460.7,202.1L459.1,211.1L447.3,212.6L440.0,216.3L436.5,224.1L429.9,224.5L427.2,219.2L424.6,220.4L421.2,218.9Z" class="country" data-name="Mali" data-iso="MLI"/>
<path d="M407.3,197.5L417.7,196.7L417.8,191.8L420.2,191.6L420.1,185.2L428.3,185.3L428.3,181.5L437.7,187.6L433.9,187.6L436.2,211.2L420.8,211.5L419.6,213.5L413.6,208.5L408.8,209.7L409.3,199.8L407.3,197.5Z" class="country" data-name="Mauritania" data-iso="MRT"/>
<path d="M456.7,234.4L454.7,234.6L454.2,227.2L451.9,223.8L457.1,219.4L459.5,223.2L456.8,228.7L456.7,234.4Z" class="country" data-name="Benin" data-iso="BEN"/>
<path d="M487.1,192.8L489.8,199.0L488.1,208.4L483.9,214.1L486.5,216.7L485.5,218.8L482.7,216.0L472.5,217.9L463.6,215.3L460.3,216.2L459.0,220.8L452.6,217.9L450.9,212.7L459.1,211.1L460.7,202.1L480.0,191.3L485.4,193.8L487.1,192.8Z" class="country" data-name="Niger" data-iso="NER"/>
<path d="M456.7,234.4L460.9,215.6L472.5,217.9L482.7,216.0L486.4,219.8L479.4,232.5L473.1,233.9L471.3,238.1L464.7,239.3L460.8,234.3L456.7,234.4Z" class="country" data-name="Nigeria" data-iso="NGA"/>
<path d="M486.2,217.9L488.7,225.0L484.9,226.1L488.6,230.8L486.2,238.2L489.9,245.7L474.1,244.3L471.2,238.8L471.9,236.3L475.3,232.4L479.4,232.5L486.2,217.9Z" class="country" data-name="Cameroon" data-iso="CMR"/>
<path d="M452.2,222.5L454.7,234.6L452.7,235.2L449.9,223.2L452.2,222.5Z" class="country" data-name="Togo" data-iso="TGO"/>
<path d="M450.1,222.5L452.7,235.2L442.9,237.5L442.6,222.6L450.1,222.5Z" class="country" data-name="Ghana" data-iso="GHA"/>
<path d="M429.9,224.5L434.5,223.7L442.9,225.9L442.9,237.5L430.7,239.1L431.1,235.7L428.5,233.8L429.9,224.5Z" class="country" data-name="Côte d'Ivoire" data-iso="CIV"/>
<path d="M415.7,218.5L424.6,220.4L427.2,219.2L429.9,224.5L429.3,230.8L427.0,231.7L425.6,228.6L423.7,229.1L422.2,224.9L416.9,227.7L412.2,222.4L415.7,218.5Z" class="country" data-name="Guinea" data-iso="GIN"/>
<path d="M408.3,219.0L415.7,218.5L415.6,220.5L412.2,222.4L408.3,219.0Z" class="country" data-name="Guinea-Bissau" data-iso="GNB"/>
<path d="M428.9,230.8L428.5,233.8L431.1,235.7L430.7,239.1L421.4,233.0L424.4,229.0L427.0,231.7L428.9,230.8Z" class="country" data-name="Liberia" data-iso="LBR"/>
<path d="M416.9,227.7L422.2,224.9L424.4,229.0L421.4,233.0L416.9,227.7Z" class="country" data-name="Sierra Leone" data-iso="SLE"/>
<path d="M436.5,224.1L439.3,216.9L447.3,212.6L450.9,212.7L452.6,217.9L455.4,218.4L452.2,222.5L442.6,222.6L442.9,225.9L436.5,224.1Z" class="country" data-name="Burkina Faso" data-iso="BFA"/>
<path d="M518.4,236.9L511.0,237.2L506.0,239.9L498.7,237.4L496.1,241.2L492.8,240.7L490.0,244.3L486.1,236.4L488.2,231.4L494.9,230.3L507.2,222.1L508.6,227.6L518.4,236.9Z" class="country" data-name="Central African Rep." data-iso="CAF"/>
<path d="M496.1,241.2L494.1,251.1L490.0,258.8L486.5,262.4L481.6,261.1L479.8,262.6L477.7,259.9L479.6,258.6L478.7,256.9L481.4,254.9L485.0,256.2L486.1,253.3L484.6,249.9L485.7,247.0L483.2,246.7L482.7,244.3L489.9,245.7L492.8,240.7L496.1,241.2Z" class="country" data-name="Congo" data-iso="COG"/>
<path d="M478.2,244.3L482.4,244.2L483.2,246.7L485.7,247.0L484.6,249.9L486.1,253.3L485.0,256.2L481.4,254.9L478.7,256.9L479.6,258.6L477.7,259.9L472.0,252.8L473.7,247.5L478.2,247.4L478.2,244.3Z" class="country" data-name="Gabon" data-iso="GAB"/>
<path d="M474.1,244.3L478.2,244.3L478.2,247.4L473.7,247.5L474.1,244.3Z" class="country" data-name="Eq. Guinea" data-iso="GNQ"/>
<path d="M526.9,270.9L533.1,274.2L531.7,284.3L533.0,284.9L525.4,287.0L525.7,288.8L517.6,294.8L508.0,293.8L504.7,290.2L504.8,282.2L510.0,282.3L509.8,277.3L517.9,279.0L524.2,283.1L524.0,280.4L520.9,279.5L521.1,272.9L522.5,271.0L526.9,270.9Z" class="country" data-name="Zambia" data-iso="ZMB"/>
<path d="M531.9,273.1L535.7,275.4L536.4,283.9L539.2,286.5L537.6,292.0L536.1,286.5L531.7,284.3L533.7,276.3L531.9,273.1Z" class="country" data-name="Malawi" data-iso="MWI"/>
<path d="M536.4,278.8L543.7,278.9L550.8,275.8L551.9,286.7L548.6,291.8L537.0,299.5L538.6,310.3L532.5,313.4L532.1,316.9L530.2,316.8L528.0,305.6L531.6,300.8L532.1,291.8L525.8,289.7L525.4,287.0L533.0,284.9L536.1,286.5L537.6,292.0L539.2,286.5L536.4,283.9L536.4,278.8Z" class="country" data-name="Mozambique" data-iso="MOZ"/>
<path d="M530.2,316.8L528.2,318.2L526.7,316.9L527.6,314.3L530.2,316.8Z" class="country" data-name="eSwatini" data-iso="SWZ"/>
<path d="M479.8,262.6L481.6,262.5L480.5,264.5L479.8,262.6ZM480.8,265.3L490.8,264.7L493.7,270.2L497.5,270.0L500.2,267.4L504.3,268.2L505.4,277.7L510.0,278.1L510.0,282.3L504.8,282.2L504.7,290.2L508.0,293.8L479.3,293.3L484.3,278.2L480.8,265.3Z" class="country" data-name="Angola" data-iso="AGO"/>
<path d="M526.2,256.0L526.9,258.4L523.3,261.2L522.6,257.1L526.2,256.0Z" class="country" data-name="Burundi" data-iso="BDI"/>
<path d="M539.6,166.8L537.4,170.3L537.3,176.2L535.7,172.0L537.7,167.3L539.6,166.8Z" class="country highlight" data-name="Israel" data-iso="ISR"/>
<path d="M541.5,164.5L537.8,167.3L541.1,163.5L541.5,164.5Z" class="country" data-name="Lebanon" data-iso="LBN"/>
<path d="M573.0,280.1L575.9,289.3L574.2,289.3L567.7,312.4L563.5,314.0L560.1,312.5L558.4,306.9L561.2,298.6L559.9,293.5L561.1,290.5L565.8,289.5L573.0,280.1Z" class="country" data-name="Madagascar" data-iso="MDG"/>
<path d="M538.9,169.0L537.3,171.6L538.0,168.7L538.9,169.0Z" class="country" data-name="Palestine" data-iso="PSE"/>
<path d="M407.9,217.1L412.3,215.3L415.4,216.2L407.9,217.1Z" class="country" data-name="Gambia" data-iso="GMB"/>
<path d="M473.7,174.2L468.8,164.8L471.1,157.6L473.8,156.6L475.5,158.2L477.6,157.3L475.4,164.2L478.7,167.2L473.7,174.2Z" class="country" data-name="Tunisia" data-iso="TUN"/>
<path d="M428.3,181.5L428.3,177.9L446.7,169.3L444.6,162.1L447.0,160.7L453.7,158.5L471.1,157.6L468.8,164.8L472.6,169.7L474.5,176.4L473.3,184.8L475.8,189.1L480.0,191.3L464.2,201.0L457.9,202.4L457.9,200.8L428.3,181.5Z" class="country" data-name="Algeria" data-iso="DZA"/>
<path d="M538.9,169.0L547.0,166.6L548.0,169.6L542.5,171.2L545.0,173.7L540.2,177.0L537.3,176.2L538.9,169.0Z" class="country" data-name="Jordan" data-iso="JOR"/>
<path d="M578.9,189.4L585.0,189.7L590.7,185.7L587.5,193.8L580.0,192.5L578.9,189.4Z" class="country highlight" data-name="United Arab Emirates" data-iso="ARE"/>
<path d="M577.0,188.1L576.9,186.3L578.2,184.7L579.0,187.0L577.0,188.1Z" class="country" data-name="Qatar" data-iso="QAT"/>
<path d="M568.3,174.9L571.0,178.6L566.4,177.3L568.3,174.9Z" class="country highlight" data-name="Kuwait" data-iso="KWT"/>
<path d="M548.0,169.6L547.0,166.6L552.5,164.0L553.2,159.1L556.9,156.5L561.9,157.1L565.2,160.8L563.5,165.1L568.3,168.8L571.4,175.2L561.8,177.1L548.0,169.6Z" class="country" data-name="Iraq" data-iso="IRQ"/>
<path d="M588.0,193.2L591.0,187.7L599.5,194.2L594.6,199.4L594.2,202.6L582.8,208.4L580.0,202.5L587.5,200.0L589.2,195.0L588.0,193.2ZM591.2,184.2L590.2,184.9L590.9,184.0L591.2,184.2Z" class="country" data-name="Oman" data-iso="OMN"/>
<path d="M868.0,289.7L869.6,291.2L868.8,291.5L868.0,289.7ZM868.2,289.4L866.6,288.5L866.6,286.6L868.2,289.4Z" class="country" data-name="Vanuatu" data-iso="VUT"/>
<path d="M706.5,219.5L707.5,214.4L715.1,215.3L716.2,213.6L719.0,216.2L718.7,219.2L714.5,221.1L715.6,222.6L708.7,223.4L706.5,219.5Z" class="country" data-name="Cambodia" data-iso="KHM"/>
<path d="M713.0,214.3L707.5,214.4L706.5,219.5L700.2,216.5L698.1,226.9L705.4,234.4L702.9,235.8L695.4,229.1L699.0,220.3L695.5,212.2L697.3,209.6L693.4,203.9L695.6,200.7L700.3,199.0L703.2,201.3L702.6,206.2L708.0,204.2L711.8,206.4L714.0,211.1L713.0,214.3Z" class="country highlight" data-name="Thailand" data-iso="THA"/>
<path d="M718.5,214.5L713.0,214.3L714.0,211.1L709.9,204.4L702.6,206.2L703.2,201.3L700.3,199.0L704.5,197.1L704.1,194.2L708.0,198.1L711.1,198.1L712.1,200.3L709.7,201.8L718.3,210.2L718.5,214.5Z" class="country" data-name="Laos" data-iso="LAO"/>
<path d="M700.3,199.0L695.6,200.7L693.4,203.9L697.3,209.6L695.5,212.2L699.0,220.3L696.4,225.2L696.3,217.2L692.9,207.7L688.4,210.7L685.5,209.9L685.8,204.5L680.8,196.3L687.8,183.6L692.8,182.3L693.3,179.3L696.7,181.2L694.0,190.3L696.7,189.8L698.8,192.6L698.1,194.7L702.9,195.4L700.3,199.0Z" class="country" data-name="Myanmar" data-iso="MMR"/>
<path d="M710.8,223.8L715.6,222.6L714.5,221.1L718.7,219.2L718.9,212.0L709.7,201.8L712.1,200.3L711.1,198.1L708.0,198.1L705.4,193.8L713.3,191.6L720.1,196.1L714.2,202.4L722.2,211.8L723.0,220.8L712.9,228.5L710.8,223.8Z" class="country highlight" data-name="Vietnam" data-iso="VNM"/>
<path d="M777.0,144.4L777.0,144.4L777.0,144.4L777.0,144.4ZM776.6,144.0L774.3,147.8L768.8,150.6L770.5,154.1L761.8,154.7L763.5,151.5L760.7,150.2L762.7,148.6L767.2,145.5L770.5,146.3L770.1,145.0L775.0,142.5L776.6,144.0Z" class="country" data-name="North Korea" data-iso="PRK"/>
<path d="M765.4,155.6L770.9,153.5L773.7,158.0L772.7,162.3L766.2,164.0L765.3,158.2L767.2,157.8L765.4,155.6Z" class="country highlight" data-name="South Korea" data-iso="KOR"/>
<path d="M669.4,126.8L680.6,123.0L693.1,125.7L697.2,119.9L709.2,124.8L717.2,124.3L721.2,126.8L726.7,127.2L735.9,124.4L741.7,125.3L739.4,130.7L745.2,129.8L749.4,132.4L733.7,138.0L729.7,137.2L728.4,138.9L729.6,140.6L726.0,142.8L712.4,146.0L702.1,143.3L690.9,143.2L688.3,139.4L677.4,136.8L677.4,132.8L669.4,126.8Z" class="country" data-name="Mongolia" data-iso="MNG"/>
<path d="M693.3,179.3L692.8,182.3L687.8,183.6L681.7,194.9L680.4,190.9L679.3,192.5L677.9,191.2L680.9,187.6L674.8,186.8L671.4,183.9L670.5,185.6L672.3,186.9L670.2,188.7L671.7,189.4L672.2,195.8L667.4,196.3L666.2,199.6L655.5,208.6L650.8,210.3L649.6,224.1L643.8,230.1L633.8,210.0L631.6,196.6L626.2,197.8L620.4,190.8L627.6,189.1L623.8,182.6L626.5,180.0L629.4,180.2L638.1,169.3L634.4,164.2L642.2,163.4L644.6,161.3L647.3,164.2L646.8,171.2L652.8,174.5L650.2,178.0L658.3,181.6L670.2,184.0L671.8,179.8L672.1,182.3L674.4,183.2L680.1,182.9L679.2,180.6L690.3,176.4L690.6,179.0L693.3,179.3Z" class="country highlight" data-name="India" data-iso="IND"/>
<path d="M680.4,190.9L680.9,198.3L678.5,193.1L676.2,193.0L675.7,195.4L672.6,194.9L670.2,188.7L672.3,186.9L670.5,185.6L671.4,183.9L674.8,186.8L680.9,187.6L677.9,191.2L679.3,192.5L680.4,190.9Z" class="country highlight" data-name="Bangladesh" data-iso="BGD"/>
<path d="M679.2,180.6L680.1,182.9L672.1,182.3L675.0,179.3L679.2,180.6Z" class="country" data-name="Bhutan" data-iso="BTN"/>
<path d="M670.3,180.3L670.2,184.0L668.1,184.0L650.2,178.0L653.8,173.9L664.6,179.5L670.3,180.3Z" class="country" data-name="Nepal" data-iso="NPL"/>
<path d="M644.6,161.3L642.2,163.4L634.4,164.2L638.1,169.3L629.4,180.2L626.5,180.0L623.8,182.6L627.6,189.1L620.4,190.8L615.9,186.4L603.7,187.3L604.7,184.4L608.3,183.1L602.2,175.4L606.4,176.7L615.9,175.3L617.3,171.7L623.3,170.2L629.6,158.7L637.9,157.2L640.5,160.3L644.6,161.3Z" class="country" data-name="Pakistan" data-iso="PAK"/>
<path d="M611.9,157.2L623.0,157.1L627.0,153.8L629.6,158.2L633.2,156.3L637.9,157.2L628.2,159.8L629.0,162.1L627.2,165.0L624.8,164.9L625.8,166.6L623.3,170.2L617.3,171.7L615.9,175.3L606.4,176.7L602.2,175.4L604.5,173.2L601.3,167.5L603.0,160.9L607.5,161.5L611.9,157.2Z" class="country" data-name="Afghanistan" data-iso="AFG"/>
<path d="M619.6,157.1L621.0,154.6L619.3,151.0L626.7,147.6L627.5,149.4L623.7,151.2L634.2,151.4L637.5,156.5L629.6,158.2L627.0,153.8L623.0,157.1L619.6,157.1Z" class="country" data-name="Tajikistan" data-iso="TJK"/>
<path d="M627.4,144.3L633.7,143.7L635.5,141.8L650.6,144.1L634.2,151.4L623.7,151.2L623.9,149.7L632.6,147.8L626.1,146.2L627.4,144.3Z" class="country" data-name="Kyrgyzstan" data-iso="KGZ"/>
<path d="M581.3,145.5L585.2,144.2L588.6,146.9L592.7,146.7L596.6,143.1L616.4,155.1L616.3,156.6L614.4,155.8L605.6,161.8L603.0,160.9L602.8,158.8L593.3,154.9L584.8,157.0L584.7,152.6L581.7,149.9L582.3,147.8L586.8,147.6L584.3,144.7L582.0,147.2L581.3,145.5Z" class="country" data-name="Turkmenistan" data-iso="TKM"/>
<path d="M571.4,175.2L568.3,168.8L563.5,165.1L565.2,160.8L560.6,155.1L560.3,151.4L565.4,153.1L570.2,151.0L573.0,156.0L577.1,157.8L584.6,157.6L591.5,154.7L602.8,158.8L601.3,167.5L604.5,173.2L602.2,175.4L608.3,183.1L604.7,184.4L603.7,187.3L593.5,185.7L592.4,182.6L583.7,183.0L578.8,180.3L575.3,174.6L571.4,175.2Z" class="country" data-name="Iran" data-iso="IRN"/>
<path d="M539.3,168.2L541.5,164.5L539.8,161.5L541.8,158.0L555.9,156.9L553.2,159.1L552.5,164.0L542.1,169.2L539.3,168.2Z" class="country" data-name="Syria" data-iso="SYR"/>
<path d="M566.3,153.1L559.1,149.4L559.0,147.3L563.9,148.0L566.3,153.1Z" class="country" data-name="Armenia" data-iso="ARM"/>
<path d="M477.6,102.9L481.6,96.8L479.8,92.2L481.4,89.8L483.9,89.9L491.9,80.0L501.6,77.2L508.8,80.2L509.8,85.0L505.5,85.7L503.4,89.0L494.6,93.1L492.8,96.6L497.0,99.8L492.1,103.2L489.7,109.7L482.4,111.6L477.6,102.9Z" class="country highlight" data-name="Sweden" data-iso="SWE"/>
<path d="M520.4,109.6L527.2,111.1L526.9,113.0L531.7,116.6L528.3,117.3L529.5,119.7L526.4,121.7L508.8,121.1L508.7,115.2L513.8,114.3L516.2,111.0L520.4,109.6Z" class="country" data-name="Belarus" data-iso="BLR"/>
<path d="M526.4,121.7L534.4,119.2L538.4,123.6L550.2,126.0L549.3,130.3L537.4,134.3L537.5,135.7L529.2,133.2L521.7,136.7L522.2,133.9L525.1,133.9L521.7,129.7L512.2,130.7L505.2,128.9L509.8,123.9L508.8,121.1L526.4,121.7Z" class="country" data-name="Ukraine" data-iso="UKR"/>
<path d="M508.7,115.2L509.5,118.3L508.0,118.8L510.1,123.2L506.9,127.4L490.4,123.9L485.2,117.5L485.3,115.6L494.1,112.9L508.7,115.2Z" class="country highlight" data-name="Poland" data-iso="POL"/>
<path d="M492.4,129.7L490.0,133.3L486.6,133.9L473.7,132.2L482.3,131.3L484.0,127.8L491.2,128.0L492.4,129.7Z" class="country" data-name="Austria" data-iso="AUT"/>
<path d="M505.2,128.9L506.8,130.3L502.6,134.2L496.1,135.6L490.5,132.9L492.4,129.7L505.2,128.9Z" class="country" data-name="Hungary" data-iso="HUN"/>
<path d="M516.5,129.4L521.7,129.7L525.1,133.9L522.2,133.9L520.6,136.3L520.3,133.0L516.5,129.4Z" class="country" data-name="Moldova" data-iso="MDA"/>
<path d="M520.6,136.3L524.0,136.8L521.4,140.7L507.4,140.4L500.6,134.7L507.9,129.8L516.5,129.4L520.3,133.0L520.6,136.3Z" class="country highlight" data-name="Romania" data-iso="ROU"/>
<path d="M516.2,111.0L513.8,114.3L508.7,115.2L502.6,109.9L512.2,109.1L516.2,111.0Z" class="country" data-name="Lithuania" data-iso="LTU"/>
<path d="M518.2,106.3L520.4,109.6L516.2,111.0L512.2,109.1L502.6,109.9L506.3,105.6L508.3,107.5L512.9,105.1L518.2,106.3Z" class="country highlight" data-name="Latvia" data-iso="LVA"/>
<path d="M520.0,101.3L518.2,106.3L510.8,105.5L508.3,102.0L520.0,101.3Z" class="country highlight" data-name="Estonia" data-iso="EST"/>
<path d="M485.3,115.6L487.5,122.2L480.6,124.3L484.0,127.8L482.3,131.3L468.7,130.9L470.2,127.5L466.6,127.0L465.1,124.7L465.0,120.4L467.1,119.4L467.8,115.8L470.3,116.2L472.0,114.9L471.3,112.6L474.8,112.5L477.3,115.0L481.3,113.8L485.3,115.6Z" class="country highlight" data-name="Germany" data-iso="DEU"/>
<path d="M506.6,139.4L507.4,140.4L521.4,140.7L520.0,145.0L507.4,146.7L506.6,139.4Z" class="country" data-name="Bulgaria" data-iso="BGR"/>
<path d="M515.7,161.8L511.8,162.7L508.8,161.8L509.2,160.7L515.7,161.8ZM502.6,147.9L516.5,146.1L515.1,147.9L509.3,148.3L511.0,149.7L506.6,149.4L510.1,155.9L507.8,155.2L507.9,158.9L506.2,159.0L500.4,150.9L502.6,147.9Z" class="country highlight" data-name="Greece" data-iso="GRC"/>
<path d="M561.9,157.1L541.8,158.0L540.4,160.4L540.4,158.4L536.8,158.0L524.2,159.6L519.1,158.4L515.4,151.3L523.1,147.0L533.8,145.0L545.9,147.6L556.5,146.0L562.0,150.7L560.3,151.4L561.9,157.1ZM515.3,145.4L520.0,145.0L522.5,146.8L515.9,149.6L515.3,145.4Z" class="country" data-name="Turkey" data-iso="TUR"/>
<path d="M502.6,147.9L500.4,150.9L498.5,149.4L499.3,143.3L502.6,147.9Z" class="country" data-name="Albania" data-iso="ALB"/>
<path d="M491.4,133.7L498.5,136.9L489.4,138.0L496.1,143.8L490.0,141.2L487.3,137.3L484.1,137.2L491.4,133.7Z" class="country" data-name="Croatia" data-iso="HRV"/>
<path d="M474.0,131.2L475.9,133.8L468.2,135.6L465.1,134.3L466.8,131.1L474.0,131.2Z" class="country" data-name="Switzerland" data-iso="CHE"/>
<path d="M464.5,124.8L465.5,126.3L464.2,126.2L464.5,124.8Z" class="country" data-name="Luxembourg" data-iso="LUX"/>
<path d="M465.4,123.0L464.2,126.2L456.3,122.1L462.4,121.3L465.4,123.0Z" class="country" data-name="Belgium" data-iso="BEL"/>
<path d="M467.3,116.3L465.4,123.0L458.3,121.6L461.8,117.3L467.3,116.3Z" class="country highlight" data-name="Netherlands" data-iso="NLD"/>
<path d="M427.4,145.3L429.3,144.3L434.0,146.5L431.3,150.9L432.4,154.8L430.4,157.9L427.8,157.8L427.9,154.3L426.2,153.2L427.4,145.3Z" class="country" data-name="Portugal" data-iso="PRT"/>
<path d="M431.4,157.3L431.3,150.9L434.0,146.5L429.3,144.3L427.4,145.3L426.5,142.4L430.1,140.6L457.5,143.8L455.2,146.9L452.0,147.5L449.3,151.7L450.3,153.2L444.6,158.3L436.6,160.1L431.4,157.3Z" class="country highlight" data-name="Spain" data-iso="ESP"/>
<path d="M434.5,115.3L433.0,119.3L425.1,120.4L427.1,117.8L425.8,115.3L431.1,112.2L431.1,114.9L434.5,115.3Z" class="country" data-name="Ireland" data-iso="IRL"/>
<path d="M860.1,300.3L867.8,305.4L863.7,304.2L860.1,300.3Z" class="country" data-name="New Caledonia" data-iso="NCL"/>
<path d="M854.8,276.1L854.3,277.1L853.3,275.5L854.8,276.1ZM852.3,270.8L853.8,274.5L851.4,270.8L852.3,270.8ZM852.1,274.7L849.6,274.5L849.3,273.1L850.9,273.5L852.1,274.7ZM845.9,268.3L849.8,271.3L845.5,268.6L845.9,268.3ZM842.9,267.6L843.8,268.4L841.4,266.5L842.9,267.6Z" class="country" data-name="Solomon Is." data-iso="SLB"/>
<path d="M896.3,344.2L890.0,353.2L886.6,353.2L888.1,351.1L884.6,348.8L886.7,343.5L881.6,336.3L885.8,338.2L889.9,343.9L896.3,344.2ZM867.6,362.8L882.0,351.2L885.6,353.4L881.8,358.4L882.7,359.6L878.6,360.6L876.5,364.8L873.3,366.6L866.7,365.5L867.6,362.8Z" class="country" data-name="New Zealand" data-iso="NZL"/>
<path d="M811.9,351.8L820.7,352.2L819.8,358.0L815.1,358.9L811.9,351.8ZM765.4,330.5L759.1,334.7L749.7,334.9L745.1,337.7L737.6,335.5L739.5,330.5L733.3,315.3L734.4,316.4L733.6,314.1L735.6,315.7L733.5,311.0L734.3,306.2L741.8,301.8L752.1,299.2L757.5,291.0L759.6,292.7L758.8,291.5L764.2,285.6L767.7,284.5L774.1,287.4L776.5,281.3L781.4,280.3L779.6,278.2L780.9,277.8L788.2,280.6L791.2,279.6L792.4,280.9L788.8,287.5L800.5,294.3L803.2,291.0L806.3,276.7L809.8,286.4L811.4,285.4L813.4,287.5L816.0,297.4L822.1,301.0L824.2,305.9L826.8,306.0L832.1,313.2L833.9,320.3L832.2,329.1L825.0,343.6L815.8,347.6L812.6,344.7L809.0,347.0L801.6,345.0L798.9,340.3L795.3,339.0L795.5,336.0L792.1,338.2L794.5,332.3L790.0,337.2L785.7,331.5L778.3,328.7L765.4,330.5Z" class="country highlight" data-name="Australia" data-iso="AUS"/>
<path d="M654.5,231.2L654.1,233.8L650.9,235.1L649.2,229.5L650.4,225.4L654.5,231.2Z" class="country" data-name="Sri Lanka" data-iso="LKA"/>
<path d="M723.7,204.5L721.6,201.6L727.0,199.8L725.8,203.3L723.7,204.5ZM634.2,151.4L652.2,142.0L649.9,137.7L656.1,136.2L658.0,131.7L662.9,132.5L664.4,128.9L669.4,126.8L677.4,132.8L677.4,136.8L688.3,139.4L690.9,143.2L702.1,143.3L712.4,146.0L723.1,143.7L729.6,140.6L728.4,138.9L729.7,137.2L733.7,138.0L743.6,133.3L749.2,133.3L745.2,129.8L738.7,129.7L741.7,125.3L748.2,124.6L751.8,120.1L750.4,118.1L755.6,116.4L764.9,118.0L769.1,125.6L773.5,126.4L777.5,130.5L787.6,128.8L782.7,137.1L777.6,137.6L776.6,144.0L775.0,142.5L770.1,145.0L770.5,146.3L767.2,145.5L760.7,150.2L752.6,152.8L755.4,148.9L754.1,147.6L743.8,153.2L749.3,157.1L752.1,155.3L755.9,156.4L756.3,157.7L747.9,162.7L754.8,170.8L753.2,173.3L755.2,175.4L754.2,179.4L746.6,188.6L739.7,193.0L727.0,196.5L726.1,199.1L724.7,199.3L724.7,196.5L717.6,195.5L716.8,193.0L713.3,191.6L704.1,194.2L704.5,197.1L698.1,194.7L698.8,192.6L696.7,189.8L694.0,190.3L696.7,181.2L694.8,179.2L690.6,179.0L690.3,176.4L681.3,180.3L675.0,179.3L672.0,181.8L671.8,179.8L664.6,179.5L646.8,171.2L647.3,164.2L640.5,160.3L634.2,151.4Z" class="country highlight" data-name="China" data-iso="CHN"/>
<path d="M753.7,186.8L752.9,193.0L751.9,195.1L750.3,191.1L753.7,186.8Z" class="country" data-name="Taiwan" data-iso="TWN"/>
<path d="M476.1,132.8L484.5,133.7L484.8,136.0L480.8,136.5L481.5,139.8L495.9,149.1L495.7,150.5L492.2,148.9L492.6,152.7L489.2,155.2L490.3,152.6L488.5,149.9L478.0,144.1L475.5,140.2L472.2,139.1L468.6,140.8L467.1,135.0L476.1,132.8ZM481.1,156.0L488.8,154.4L487.7,158.5L481.1,156.0ZM470.4,147.6L474.5,148.7L474.2,152.1L472.0,152.7L470.4,147.6Z" class="country highlight" data-name="Italy" data-iso="ITA"/>
<path d="M474.8,112.5L471.3,112.6L470.2,108.6L476.5,105.7L475.6,107.8L477.3,108.9L474.8,112.5ZM480.9,109.7L480.2,113.0L477.6,111.6L477.3,110.6L480.9,109.7Z" class="country highlight" data-name="Denmark" data-iso="DNK"/>
<path d="M434.5,115.3L431.1,114.9L431.1,112.2L435.8,113.6L434.5,115.3ZM442.3,116.5L437.4,110.5L436.0,111.7L434.6,108.0L437.5,103.4L442.5,103.4L439.8,106.1L445.1,105.8L442.2,110.1L444.8,110.2L451.2,117.7L454.2,118.2L453.6,121.8L435.6,124.6L441.5,121.4L436.8,120.0L439.4,119.2L438.6,116.3L442.3,116.5Z" class="country highlight" data-name="United Kingdom" data-iso="GBR"/>
<path d="M413.7,83.9L413.2,85.5L416.0,87.2L403.4,91.3L393.1,90.1L395.6,89.0L390.1,87.8L394.4,86.6L389.2,86.0L394.7,84.0L398.6,85.7L413.7,83.9Z" class="country highlight" data-name="Iceland" data-iso="ISL"/>
<path d="M566.0,145.3L569.5,147.1L571.5,145.5L576.0,149.4L573.9,149.6L572.2,154.2L570.2,151.0L566.3,153.1L564.0,150.3L562.4,146.9L566.3,147.3L566.0,145.3ZM565.4,153.1L563.6,152.8L562.0,150.7L564.3,151.3L565.4,153.1Z" class="country" data-name="Azerbaijan" data-iso="AZE"/>
<path d="M549.9,141.4L563.7,143.7L566.6,147.0L553.9,146.2L553.6,143.4L549.9,141.4Z" class="country" data-name="Georgia" data-iso="GEO"/>
<path d="M753.2,219.5L750.8,216.3L753.8,217.3L753.2,219.5ZM757.5,227.4L757.4,222.8L758.3,224.3L760.2,221.9L757.5,227.4ZM763.5,225.6L766.3,232.0L765.5,234.3L764.6,231.8L763.4,233.0L763.5,236.0L760.5,234.6L759.0,230.4L754.8,232.0L758.7,228.3L763.7,227.5L763.5,225.6ZM749.2,223.6L742.9,229.1L748.8,221.6L749.2,223.6ZM755.8,204.4L754.3,214.2L759.9,215.5L760.2,218.7L757.3,216.1L751.6,215.4L752.5,213.7L749.8,211.5L751.8,203.7L755.8,204.4ZM755.0,223.9L754.7,220.3L757.8,221.0L755.0,223.9ZM763.8,219.6L764.5,222.4L762.5,221.7L762.0,224.7L760.7,218.6L763.8,219.6Z" class="country" data-name="Philippines" data-iso="PHL"/>
<path d="M700.2,233.8L707.4,236.2L710.6,246.8L703.5,243.1L700.2,233.8ZM744.7,239.7L739.7,239.2L736.6,246.4L726.3,248.1L724.6,246.7L724.2,245.0L727.9,245.4L728.4,243.3L732.5,242.2L735.5,238.7L738.4,239.2L741.8,232.7L748.0,236.5L744.7,239.7Z" class="country highlight" data-name="Malaysia" data-iso="MYS"/>
<path d="M738.6,236.4L738.4,239.2L736.6,240.0L735.5,238.7L738.6,236.4Z" class="country" data-name="Brunei" data-iso="BRN"/>
<path d="M484.5,133.7L490.5,132.9L491.4,133.7L488.3,136.4L484.3,136.2L484.5,133.7Z" class="country" data-name="Slovenia" data-iso="SVN"/>
<path d="M522.5,75.6L521.1,79.1L524.9,80.8L522.6,82.6L525.5,85.5L523.9,87.6L526.1,89.5L525.1,91.1L528.8,92.8L527.8,94.1L520.2,98.7L507.2,100.4L503.3,98.2L503.8,92.0L513.5,87.2L508.9,84.0L508.8,80.2L501.6,77.2L511.8,78.4L519.3,74.6L522.5,75.6Z" class="country highlight" data-name="Finland" data-iso="FIN"/>
<path d="M506.4,127.3L504.7,129.2L494.6,130.6L492.2,128.8L496.4,126.3L506.4,127.3Z" class="country" data-name="Slovakia" data-iso="SVK"/>
<path d="M487.5,122.2L493.9,124.1L497.1,126.3L485.8,128.6L481.3,126.1L480.6,124.3L487.5,122.2Z" class="country" data-name="Czechia" data-iso="CZE"/>
<path d="M541.1,213.9L542.1,207.6L546.0,205.0L548.2,210.2L557.7,218.3L555.9,218.6L550.1,213.7L541.1,213.9Z" class="country" data-name="Eritrea" data-iso="ERI"/>
<path d="M804.7,152.0L800.6,162.2L793.0,163.5L789.5,166.3L787.7,163.5L777.5,165.3L780.0,167.1L778.3,171.4L775.5,171.5L776.1,169.2L773.5,166.8L781.5,161.4L789.2,161.2L791.8,156.7L793.5,157.9L798.6,154.5L800.8,147.0L803.4,146.6L804.7,152.0ZM811.5,140.1L813.3,139.0L813.9,141.8L808.0,145.0L804.0,143.3L802.7,146.0L799.9,146.1L799.5,143.6L803.5,141.5L804.9,136.1L811.5,140.1ZM780.9,166.3L784.8,164.1L786.9,165.5L782.5,168.2L780.9,166.3Z" class="country highlight" data-name="Japan" data-iso="JPN"/>
<path d="M304.6,300.4L305.2,305.2L310.5,305.9L311.5,309.9L314.3,310.1L313.0,316.6L310.8,318.5L303.5,317.8L305.6,312.9L293.3,305.6L295.5,299.1L302.2,298.4L304.6,300.4Z" class="country" data-name="Paraguay" data-iso="PRY"/>
<path d="M580.0,202.5L582.8,208.4L580.4,211.0L558.7,218.4L556.5,212.0L558.5,206.1L567.5,207.6L572.8,203.5L580.0,202.5Z" class="country" data-name="Yemen" data-iso="YEM"/>
<path d="M537.4,176.6L543.8,175.0L545.0,173.7L542.5,171.2L548.0,169.6L561.8,177.1L568.6,177.5L575.4,183.3L580.0,192.5L588.0,193.2L589.2,195.0L587.5,200.0L572.8,203.5L567.5,207.6L558.5,206.1L556.9,209.1L547.8,196.8L546.2,190.8L536.6,179.9L537.4,176.6Z" class="country highlight" data-name="Saudi Arabia" data-iso="SAU"/>
<path d="M328.3,445.1L340.2,446.2L341.7,450.1L323.8,452.6L314.6,451.6L328.3,445.1ZM284.3,450.6L295.3,451.0L298.5,449.1L301.1,450.1L299.6,452.5L284.3,450.6ZM262.6,430.2L269.8,428.0L270.6,423.8L274.4,422.2L279.2,428.5L278.0,430.4L272.3,431.3L262.6,430.2ZM194.2,429.7L208.0,429.9L209.5,431.3L198.0,431.3L194.2,429.7ZM149.4,435.2L144.0,433.3L153.2,433.7L149.4,435.2ZM131.8,433.7L133.6,433.1L139.9,434.7L135.2,434.3L131.8,433.7ZM40.7,446.5L46.9,446.0L52.0,448.7L47.2,449.1L40.7,446.5ZM900.0,461.8L900.0,475.0L0.0,475.0L0.0,461.8L2.4,460.3L14.0,461.3L25.1,459.7L54.8,463.4L92.2,462.6L92.8,461.4L66.0,459.2L67.8,455.1L57.9,452.8L73.4,453.3L84.0,450.8L76.2,448.4L61.7,447.7L54.9,445.1L54.1,442.2L71.7,443.5L84.7,441.2L84.5,438.5L112.0,435.8L147.3,436.3L165.1,434.3L169.3,436.8L181.1,438.0L199.7,437.2L193.6,435.3L190.8,431.5L209.2,434.0L224.8,433.3L226.9,431.4L246.3,434.6L249.3,432.8L262.8,434.7L281.6,431.2L278.6,424.3L281.4,420.4L280.6,418.3L290.9,412.2L305.5,408.2L306.9,408.8L294.9,412.0L293.4,413.7L294.7,415.5L285.8,419.9L295.5,426.8L297.9,434.2L273.5,441.6L256.9,441.8L265.9,444.8L255.2,445.9L254.9,448.0L261.6,450.6L300.8,455.9L304.4,458.0L325.6,454.3L343.0,455.2L378.6,450.8L375.8,448.2L360.9,448.6L360.6,445.8L406.2,437.8L410.7,436.2L408.8,434.7L411.4,432.9L424.3,428.2L431.5,429.2L432.8,427.3L449.4,429.1L469.4,424.7L477.0,427.1L483.6,424.9L517.7,426.2L530.0,424.1L534.7,421.3L546.6,424.4L586.3,414.5L603.6,419.9L610.1,418.5L622.2,419.8L624.2,423.1L619.5,425.8L622.7,426.7L619.9,429.6L624.7,430.7L634.7,424.7L644.1,423.7L656.9,418.0L666.9,417.9L670.0,415.5L674.2,417.9L689.5,418.5L699.3,418.1L707.1,413.9L715.5,417.3L734.0,414.7L749.6,418.2L758.1,416.2L786.9,415.5L787.7,413.3L793.7,417.4L813.7,417.3L822.1,421.0L835.7,421.4L853.9,426.4L878.0,429.2L873.2,434.1L865.2,436.0L858.9,440.6L861.9,445.5L867.5,446.9L854.4,447.9L849.5,452.4L873.5,459.6L900.0,461.8Z" class="country" data-name="Antarctica" data-iso="ATA"/>
<path d="M534.9,162.4L532.4,161.5L536.4,160.8L534.9,162.4Z" class="country" data-name="N. Cyprus" data-iso="-99"/>
<path d="M531.8,162.1L533.5,162.1L535.0,162.6L532.4,163.6L531.8,162.1Z" class="country" data-name="Cyprus" data-iso="CYP"/>
<path d="M444.6,162.1L446.7,169.3L428.3,177.9L428.0,182.2L421.5,182.8L413.1,196.2L407.4,196.4L413.9,184.4L426.1,175.2L425.5,172.1L428.4,166.9L432.7,164.7L435.2,160.6L444.6,162.1Z" class="country" data-name="Morocco" data-iso="MAR"/>
<path d="M542.2,195.0L512.5,195.0L512.9,171.1L522.3,172.8L527.4,171.1L529.9,172.7L535.7,172.0L537.3,176.2L535.4,180.4L530.8,175.6L539.2,190.2L538.8,192.2L542.2,195.0Z" class="country highlight" data-name="Egypt" data-iso="EGY"/>
<path d="M512.3,170.3L512.5,200.0L509.6,201.0L489.7,191.5L485.4,193.8L475.8,189.1L473.3,184.8L474.9,171.6L478.7,167.2L488.1,169.3L489.3,171.6L497.7,174.3L502.1,168.2L512.3,170.3Z" class="country" data-name="Libya" data-iso="LBY"/>
<path d="M569.5,230.0L562.4,237.5L548.9,241.4L540.4,238.9L532.4,230.5L541.1,213.9L544.0,214.5L544.8,212.6L554.0,216.4L555.9,218.6L554.4,222.4L556.9,222.7L559.2,227.0L569.5,230.0Z" class="country" data-name="Ethiopia" data-iso="ETH"/>
<path d="M555.9,218.6L558.3,219.0L556.9,222.7L554.4,222.4L555.9,218.6Z" class="country" data-name="Djibouti" data-iso="DJI"/>
<path d="M572.4,221.5L572.3,226.4L569.5,230.0L559.2,227.0L556.4,223.6L557.9,221.3L560.3,223.9L572.4,221.5Z" class="country" data-name="Somaliland" data-iso="-99"/>
<path d="M534.8,252.4L523.9,253.4L528.1,240.5L535.0,239.4L536.2,241.1L537.6,245.2L534.8,252.4Z" class="country" data-name="Uganda" data-iso="UGA"/>
<path d="M526.0,252.8L526.9,255.7L522.6,257.1L523.2,254.1L526.0,252.8Z" class="country" data-name="Rwanda" data-iso="RWA"/>
<path d="M496.4,143.4L491.1,139.9L489.9,136.9L498.4,137.8L498.6,141.1L496.4,143.4Z" class="country" data-name="Bosnia and Herz." data-iso="BIH"/>
<path d="M506.0,144.2L507.4,146.7L501.5,147.3L501.9,144.9L506.0,144.2Z" class="country" data-name="North Macedonia" data-iso="MKD"/>
<path d="M497.1,135.2L500.6,134.7L506.8,138.6L506.4,143.8L503.9,144.4L502.0,141.8L500.6,143.0L498.0,141.2L497.1,135.2Z" class="country" data-name="Serbia" data-iso="SRB"/>
<path d="M500.2,143.5L498.4,145.3L496.1,143.8L498.0,141.2L500.2,143.5Z" class="country" data-name="Montenegro" data-iso="MNE"/>
<path d="M501.5,145.4L500.2,143.5L501.6,142.0L504.4,143.3L501.5,145.4Z" class="country" data-name="Kosovo" data-iso="-99"/>
<path d="M295.1,224.8L297.8,222.9L297.7,224.7L295.1,224.8Z" class="country" data-name="Trinidad and Tobago" data-iso="TTO"/>
<path d="M527.1,241.2L524.3,238.5L519.9,239.0L509.7,228.5L514.5,224.0L516.9,226.3L522.4,226.5L525.0,224.3L528.4,225.5L531.0,222.3L530.2,220.1L533.0,219.6L534.9,228.3L532.4,230.5L538.2,236.2L533.5,240.5L527.1,241.2Z" class="country" data-name="S. Sudan" data-iso="SSD"/>
</svg>